<svg id="Layer_1" data-name="Layer 1" xmlns="http://www.w3.org/2000/svg" xmlns:xlink="http://www.w3.org/1999/xlink" viewBox="0 0 425.2 425.2"><defs><style>.cls-1{fill:url(#linear-gradient);}.cls-2{fill:#fff;}</style><linearGradient id="linear-gradient" x1="21.47" y1="207.66" x2="413.05" y2="207.66" gradientUnits="userSpaceOnUse"><stop offset="0" stop-color="#82368c"/><stop offset="1" stop-color="#ea571c"/></linearGradient></defs><circle class="cls-1" cx="217.26" cy="207.66" r="195.79"/><polygon class="cls-2" points="341.31 183.65 202.68 377.98 168.32 288.97 189.5 289.31 207.87 336.88 251.84 275.26 201.89 275.26 191.2 255.62 265.84 255.62 303.19 203.27 145.35 203.27 159.07 183.65 341.31 183.65"/><polygon class="cls-2" points="289.18 212.04 275.45 231.68 93.21 231.68 231.85 37.35 266.2 126.34 245.03 126.02 226.65 78.43 182.69 140.06 232.63 140.06 243.33 159.71 168.66 159.71 131.34 212.04 289.18 212.04"/><path class="cls-2" d="M179.32,285.05a13.95,13.95,0,1,1,14-13.95A14,14,0,0,1,179.32,285.05Zm0-19.42a5.47,5.47,0,1,0,5.46,5.47A5.47,5.47,0,0,0,179.32,265.63Z"/><path class="cls-2" d="M254,156.72a14,14,0,1,1,14-13.95A14,14,0,0,1,254,156.72Zm0-19.42a5.47,5.47,0,1,0,5.47,5.47A5.47,5.47,0,0,0,254,137.3Z"/></svg>